<svg width="16" height="16" viewBox="0 0 16 16" fill="none" xmlns="http://www.w3.org/2000/svg">
<path fill-rule="evenodd" clip-rule="evenodd" d="M7.99998 14.4C9.69736 14.4 11.3252 13.7257 12.5255 12.5255C13.7257 11.3252 14.4 9.69738 14.4 8C14.4 6.30261 13.7257 4.67475 12.5255 3.47452C11.3252 2.27428 9.69736 1.6 7.99998 1.6C6.30259 1.6 4.67472 2.27428 3.47449 3.47452C2.27426 4.67475 1.59998 6.30261 1.59998 8C1.59998 9.69738 2.27426 11.3252 3.47449 12.5255C4.67472 13.7257 6.30259 14.4 7.99998 14.4Z" fill="#71717A"/>
<path d="M11.1901 6.40289C11.1919 6.61265 11.1113 6.81473 10.9656 6.96561L7.76558 10.1656C7.61556 10.3156 7.41212 10.3998 7.19998 10.3998C6.98785 10.3998 6.78441 10.3156 6.63438 10.1656L5.03438 8.56561C4.88866 8.41473 4.80802 8.21265 4.80984 8.00289C4.81167 7.79313 4.8958 7.59248 5.04413 7.44416C5.19246 7.29583 5.39311 7.21169 5.60286 7.20987C5.81262 7.20805 6.0147 7.28868 6.16558 7.43441L7.19998 8.46881L9.83438 5.83441C9.98527 5.68868 10.1873 5.60805 10.3971 5.60987C10.6069 5.61169 10.8075 5.69583 10.9558 5.84416C11.1042 5.99248 11.1883 6.19313 11.1901 6.40289Z" fill="white"/>
</svg>
